<svg width="24" height="48" viewBox="0 0 24 48" fill="none" xmlns="http://www.w3.org/2000/svg">
<g clip-path="url(#clip0_1_9)">
<path fill-rule="evenodd" clip-rule="evenodd" d="M20.8256 17.5191C20.6831 17.3485 20.4723 17.25 20.25 17.25H5.12625L4.66781 14.7319C4.53823 14.0186 3.91711 13.5001 3.19219 13.5H1.5C1.08579 13.5 0.75 13.8358 0.75 14.25C0.75 14.6642 1.08579 15 1.5 15H3.1875L5.58375 28.1522C5.65434 28.5422 5.82671 28.9067 6.08344 29.2087C5.09996 30.1273 4.97046 31.6409 5.7836 32.7132C6.59675 33.7855 8.08911 34.0692 9.23899 33.37C10.3889 32.6709 10.8238 31.2154 10.2459 30H14.5041C14.3363 30.3513 14.2495 30.7357 14.25 31.125C14.25 32.5747 15.4253 33.75 16.875 33.75C18.3247 33.75 19.5 32.5747 19.5 31.125C19.5 29.6753 18.3247 28.5 16.875 28.5H7.79719C7.43472 28.4999 7.12417 28.2407 7.05937 27.8841L6.76219 26.25H17.6372C18.7246 26.2498 19.6563 25.4721 19.8506 24.4022L20.9906 18.1341C21.0297 17.9147 20.9692 17.6894 20.8256 17.5191V17.5191ZM9 31.125C9 31.7463 8.49632 32.25 7.875 32.25C7.25368 32.25 6.75 31.7463 6.75 31.125C6.75 30.5037 7.25368 30 7.875 30C8.49632 30 9 30.5037 9 31.125V31.125ZM18 31.125C18 31.7463 17.4963 32.25 16.875 32.25C16.2537 32.25 15.75 31.7463 15.75 31.125C15.75 30.5037 16.2537 30 16.875 30C17.4963 30 18 30.5037 18 31.125V31.125ZM18.375 24.1341C18.31 24.4917 17.9979 24.7513 17.6344 24.75H6.48938L5.39906 18.75H19.3509L18.375 24.1341Z" fill="#171212"/>
</g>
<defs>
<clipPath id="clip0_1_9">
<rect width="24" height="24" fill="white" transform="translate(0 12)"/>
</clipPath>
</defs>
</svg>
