<svg width="20" height="20" viewBox="0 0 20 20" fill="none" xmlns="http://www.w3.org/2000/svg">
<path fill-rule="evenodd" clip-rule="evenodd" d="M19.3014 18.2401L14.6073 13.547C17.4336 10.1538 17.0912 5.13766 13.8299 2.16008C10.5686 -0.817508 5.54207 -0.703272 2.4194 2.4194C-0.703269 5.54207 -0.817504 10.5686 2.16008 13.8299C5.13767 17.0912 10.1538 17.4336 13.547 14.6073L18.2401 19.3014C18.5332 19.5944 19.0083 19.5944 19.3014 19.3014C19.5944 19.0083 19.5944 18.5332 19.3014 18.2401V18.2401ZM1.52073 8.27073C1.52073 4.54281 4.54281 1.52073 8.27073 1.52073C11.9987 1.52073 15.0207 4.54281 15.0207 8.27073C15.0207 11.9987 11.9987 15.0207 8.27073 15.0207C4.54452 15.0166 1.52487 11.9969 1.52073 8.27073V8.27073Z" fill="#8A6E61"/>
</svg>
