<svg width="20" height="19" viewBox="0 0 20 19" fill="none" xmlns="http://www.w3.org/2000/svg">
<path fill-rule="evenodd" clip-rule="evenodd" d="M19.4081 17.6276C17.9803 15.1591 15.78 13.3891 13.2122 12.5501C15.8229 10.9959 17.0735 7.88894 16.2676 4.95946C15.4616 2.02998 12.7977 1.28746e-05 9.7594 1.28746e-05C6.72107 1.28746e-05 4.05719 2.02998 3.25122 4.95946C2.44525 7.88894 3.69585 10.9959 6.30659 12.5501C3.73877 13.3882 1.53846 15.1582 0.110649 17.6276C-0.0318971 17.86 -0.0370734 18.1515 0.0971305 18.3888C0.231334 18.6262 0.483775 18.772 0.756424 18.7696C1.02907 18.7673 1.27897 18.6172 1.40909 18.3776C3.17534 15.3251 6.29721 13.5026 9.7594 13.5026C13.2216 13.5026 16.3435 15.3251 18.1097 18.3776C18.2398 18.6172 18.4897 18.7673 18.7624 18.7696C19.035 18.772 19.2875 18.6262 19.4217 18.3888C19.5559 18.1515 19.5507 17.86 19.4081 17.6276V17.6276ZM4.5094 6.75256C4.5094 3.85307 6.8599 1.50256 9.7594 1.50256C12.6589 1.50256 15.0094 3.85307 15.0094 6.75256C15.0094 9.65206 12.6589 12.0026 9.7594 12.0026C6.86119 11.9995 4.5125 9.65077 4.5094 6.75256V6.75256Z" fill="#8A6E61"/>
</svg>
